<?xml version="1.0" standalone="no"?>
<!DOCTYPE svg PUBLIC "-//W3C//DTD SVG 20010904//EN"
 "http://www.w3.org/TR/2001/REC-SVG-20010904/DTD/svg10.dtd">
<svg version="1.0" xmlns="http://www.w3.org/2000/svg"
 width="800.000000pt" height="800.000000pt" viewBox="0 0 800.000000 800.000000"
 preserveAspectRatio="xMidYMid meet">
<metadata>
Created by potrace 1.14, written by Peter Selinger 2001-2017
</metadata>
<g transform="translate(0.000000,800.000000) scale(0.100000,-0.100000)"
fill="#000000" stroke="none">
<path d="M4957 6423 c-1 0 -42 -3 -92 -5 -73 -4 -108 -12 -187 -42 -95 -36
-228 -105 -256 -132 -7 -8 -17 -14 -21 -14 -11 0 -116 -104 -148 -148 -16 -20
-31 -39 -35 -42 -14 -11 -114 -178 -132 -220 -10 -25 -24 -60 -32 -77 -7 -18
-23 -77 -34 -132 -35 -174 -22 -388 35 -568 45 -142 175 -308 326 -415 71 -51
227 -135 304 -163 28 -10 55 -22 60 -25 6 -4 48 -22 93 -39 46 -18 91 -36 100
-40 10 -5 60 -29 114 -55 115 -55 206 -136 226 -202 13 -46 3 -134 -22 -183
-35 -67 -136 -140 -216 -156 -82 -17 -218 -13 -335 10 -33 6 -98 31 -151 58
-64 32 -281 184 -364 255 l-65 55 -6 -94 c-3 -52 -6 -253 -5 -447 l1 -352 -40
0 c-22 0 -71 5 -110 11 -38 5 -81 12 -95 14 -64 9 -237 84 -320 139 -139 93
-305 304 -471 601 -151 271 -164 294 -275 463 -106 161 -162 232 -274 347
-119 121 -147 143 -245 190 -148 71 -210 86 -375 91 -80 3 -156 2 -170 -1 -45
-11 1 -25 87 -26 203 -2 266 -29 413 -178 138 -139 262 -329 421 -641 97 -193
235 -440 287 -515 97 -141 233 -304 301 -362 120 -103 302 -206 443 -251 93
-31 285 -62 353 -59 80 5 244 36 275 52 22 11 31 10 74 -12 27 -14 68 -32 90
-40 43 -16 185 -53 195 -51 3 1 13 -2 21 -5 35 -14 130 -25 239 -26 176 -3
360 39 531 121 112 54 186 105 260 180 159 160 246 327 286 548 18 98 20 357
4 435 -6 28 -12 59 -14 70 -6 34 -38 136 -54 174 -9 20 -17 42 -18 48 -1 7
-19 43 -39 79 -44 79 -147 190 -231 250 -108 77 -353 194 -564 270 -111 39
-151 59 -209 103 -83 62 -105 99 -109 188 -6 112 10 156 75 207 66 52 126 73
222 79 89 5 133 -4 220 -45 61 -29 187 -105 215 -129 6 -6 43 -34 82 -62 80
-59 176 -137 186 -152 4 -5 10 -7 13 -3 7 6 7 9 5 113 0 39 2 223 6 410 5 276
3 343 -8 358 -28 37 -494 176 -618 184 -76 4 -221 9 -223 6z"/>
<path d="M3250 6363 c-120 -8 -193 -31 -385 -122 -313 -148 -534 -380 -712
-748 -30 -62 -61 -117 -69 -124 -17 -14 -1 -39 26 -39 23 0 123 -35 190 -66
125 -59 318 -205 396 -301 l38 -46 14 54 c7 30 19 68 27 84 11 26 33 97 39
130 1 6 12 31 23 57 59 131 245 318 373 376 136 60 191 72 345 72 79 0 155 -4
169 -9 18 -7 28 -6 36 5 7 7 9 14 5 14 -4 0 -3 6 2 13 6 6 21 44 33 82 36 109
138 351 182 428 22 38 36 73 31 77 -4 4 -41 19 -81 33 -70 26 -79 27 -355 30
-155 2 -302 2 -327 0z"/>
<path d="M1390 4942 c-79 -8 -221 -42 -262 -61 -62 -29 -73 -37 -169 -119 -88
-74 -99 -82 -111 -82 -6 0 -8 -3 -5 -6 3 -4 21 0 39 8 18 9 62 28 98 44 36 16
80 39 99 51 43 29 62 24 122 -32 49 -45 118 -69 172 -58 47 9 32 30 -27 35
-40 3 -65 12 -91 32 -73 56 -59 89 41 96 l69 5 69 -67 c39 -38 75 -68 80 -68
6 0 19 -7 29 -14 15 -11 16 -19 8 -34 -9 -16 -5 -21 27 -36 72 -34 158 -91
206 -136 54 -50 165 -189 188 -235 31 -64 222 -433 251 -485 127 -231 325
-463 508 -597 134 -98 334 -193 405 -193 17 0 62 -11 100 -24 90 -31 190 -42
240 -26 46 16 32 25 -54 34 -34 4 -81 14 -105 22 -38 13 -154 79 -167 94 -3 3
-27 23 -53 45 -104 83 -234 272 -361 525 -32 63 -87 169 -121 235 -35 66 -106
206 -160 310 -166 326 -282 477 -443 579 -116 73 -184 102 -306 131 -97 23
-242 36 -316 27z m265 -49 c17 -4 33 -8 38 -9 4 -1 18 -2 32 -3 14 0 25 -7 25
-14 0 -23 -40 -19 -167 19 -13 3 -21 10 -18 14 5 8 30 6 90 -7z m-355 -17 c0
-11 -19 -15 -25 -6 -3 5 1 10 9 10 9 0 16 -2 16 -4z m615 -87 c53 -27 77 -67
33 -54 -54 15 -105 41 -140 71 -34 31 -35 33 -15 37 12 2 33 -4 47 -12 14 -8
48 -27 75 -42z"/>
<path d="M810 4660 c-13 -8 -12 -10 3 -10 9 0 17 5 17 10 0 12 -1 12 -20 0z"/>
<path d="M1975 2770 c-45 -4 -50 -8 -52 -30 0 -14 -2 -29 -3 -35 -3 -14 -3
-78 0 -90 1 -5 2 -12 0 -15 -1 -3 -4 -172 -7 -377 l-5 -372 27 -7 c15 -4 53
-3 84 2 44 7 58 14 66 32 12 27 41 29 57 2 7 -11 20 -20 29 -20 9 0 27 -8 40
-19 38 -29 82 -48 104 -43 31 7 149 88 172 119 53 73 94 198 89 278 -8 158
-95 298 -208 334 -53 17 -144 8 -178 -18 -52 -38 -53 -36 -52 97 2 159 -1 167
-64 167 -27 0 -71 -2 -99 -5z m314 -452 c20 -21 42 -95 33 -111 -2 -5 -6 -43
-8 -85 -3 -54 -9 -80 -20 -88 -23 -18 -100 -27 -123 -14 -26 13 -41 68 -41
150 0 124 28 170 102 170 25 0 44 -7 57 -22z"/>
<path d="M735 2739 c-22 -10 -65 -25 -95 -34 -74 -20 -168 -97 -209 -168 -38
-67 -71 -190 -71 -267 0 -201 83 -334 268 -426 66 -33 86 -39 142 -38 75 0
206 47 261 93 l32 27 -37 52 c-20 28 -36 55 -36 59 0 5 -9 19 -19 33 l-19 24
-46 -32 c-118 -85 -254 -39 -283 97 -4 14 -6 69 -7 121 0 77 4 104 22 143 26
57 40 73 86 92 51 22 104 18 164 -10 30 -14 58 -25 63 -25 5 0 16 17 24 37 9
20 30 49 48 64 27 23 30 31 21 46 -13 21 -79 56 -148 77 -27 9 -54 20 -60 25
-30 25 -61 28 -101 10z"/>
<path d="M4300 2750 c-59 -17 -198 -91 -224 -120 -84 -94 -69 -244 33 -337 20
-18 39 -33 43 -33 28 0 289 -131 301 -151 14 -23 1 -64 -32 -102 -28 -31 -32
-32 -103 -31 -60 0 -85 6 -143 33 -38 18 -77 39 -85 46 -9 8 -20 11 -26 7 -15
-9 -64 -114 -64 -136 0 -12 24 -28 73 -51 172 -79 272 -84 396 -21 41 20 81
45 88 54 63 80 84 166 64 264 -17 82 -45 103 -256 193 -121 52 -163 79 -171
112 -6 23 -1 32 29 58 36 31 95 55 133 55 11 -1 44 -14 74 -30 30 -17 62 -30
72 -30 9 0 38 19 64 43 l48 43 -60 36 c-113 69 -217 108 -254 98z"/>
<path d="M1148 2529 c-16 -4 -22 -12 -20 -25 6 -39 47 -153 120 -339 99 -251
110 -292 103 -376 -1 -20 -39 -36 -104 -45 -57 -8 -65 -19 -66 -95 l0 -57 37
-6 c178 -29 274 35 359 244 84 204 227 658 216 686 -5 14 -21 16 -99 12 -51
-2 -96 -7 -99 -10 -6 -6 -23 -73 -60 -244 -9 -39 -19 -100 -23 -134 -4 -35
-12 -65 -17 -67 -6 -2 -43 96 -84 217 -41 121 -79 224 -85 229 -13 11 -146 18
-178 10z"/>
<path d="M2908 2526 c-89 -32 -165 -104 -209 -198 -50 -109 -48 -223 7 -335
27 -57 96 -133 119 -133 8 0 29 -9 48 -20 39 -23 91 -33 155 -31 48 1 191 58
199 78 3 7 1 39 -3 71 -9 54 -11 57 -39 60 -30 3 -119 -30 -130 -48 -11 -18
-37 -10 -75 23 -21 17 -49 39 -62 49 -19 13 -21 19 -10 29 12 13 48 16 260 22
70 2 85 5 94 21 14 25 3 174 -18 246 -39 132 -204 213 -336 166z m148 -186
c35 -22 52 -56 37 -71 -11 -11 -167 -14 -183 -4 -5 3 -10 19 -10 35 0 56 92
79 156 40z"/>
<path d="M3473 2532 l-52 -3 4 -117 c2 -64 4 -213 5 -331 1 -117 3 -218 6
-225 3 -8 36 -11 106 -9 83 1 105 5 115 19 7 9 9 23 5 30 -4 7 -5 94 -2 194 4
145 8 183 20 190 24 16 81 29 133 31 26 2 53 9 59 16 13 17 3 180 -13 199 -9
11 -33 13 -96 5 -6 0 -18 -7 -25 -14 -101 -95 -138 -111 -138 -58 -1 71 -16
79 -127 73z"/>
<path d="M5755 2530 c-59 -14 -164 -69 -181 -95 -14 -22 -15 -32 -5 -65 6 -22
15 -42 20 -45 5 -2 33 6 63 20 71 32 142 40 188 20 42 -19 83 -74 78 -107 -2
-19 -8 -22 -33 -20 -112 12 -160 8 -197 -15 -21 -13 -42 -23 -46 -23 -5 0 -29
-18 -54 -39 -34 -31 -47 -50 -56 -89 -20 -87 0 -156 59 -206 71 -60 132 -74
191 -45 20 10 40 23 43 29 3 6 24 19 46 31 l40 20 29 -31 c22 -23 36 -30 67
-30 68 0 67 -4 69 228 2 210 -3 267 -33 329 -45 96 -179 158 -288 133z m160
-390 c16 -26 10 -82 -12 -115 -32 -46 -71 -65 -137 -65 -48 0 -58 3 -72 25 -9
14 -14 28 -11 32 4 3 2 13 -2 22 -13 23 24 65 79 90 47 22 144 29 155 11z"/>
<path d="M7110 2522 c-30 -8 -57 -18 -60 -22 -3 -3 -22 -16 -42 -29 -44 -26
-102 -103 -122 -158 -39 -110 -27 -262 26 -345 52 -82 181 -159 271 -162 42
-2 64 4 113 31 33 18 71 33 83 33 21 0 22 3 16 43 -4 23 -9 45 -12 50 -2 4
-55 7 -116 6 -114 -2 -171 5 -195 24 -19 15 -42 75 -42 108 l0 29 123 -1 c67
0 129 0 137 0 8 0 38 -2 65 -4 66 -7 75 6 75 103 0 101 -15 144 -69 201 -91
96 -157 121 -251 93z m118 -146 c58 -30 100 -104 70 -122 -14 -9 -234 -15
-254 -7 -15 6 -9 49 12 81 17 26 87 61 122 62 13 0 35 -6 50 -14z"/>
<path d="M4806 2521 c-12 -18 -15 -129 -16 -531 0 -212 -1 -390 0 -396 0 -7
24 -11 63 -12 111 -1 105 -9 101 121 -5 170 0 177 91 132 65 -32 79 -31 167 9
79 36 100 57 136 136 80 179 65 357 -39 462 -99 99 -169 111 -280 48 -39 -22
-73 -40 -76 -40 -3 0 -20 16 -38 35 -33 37 -96 58 -109 36z m342 -167 c25 -17
68 -101 76 -150 5 -26 -29 -147 -56 -197 -13 -26 -53 -38 -121 -38 -88 -1 -91
5 -95 159 -5 154 3 189 48 220 40 27 114 30 148 6z"/>
<path d="M6441 2500 c-116 -55 -213 -182 -213 -276 0 -13 -4 -24 -8 -24 -10 0
16 -151 34 -193 37 -91 202 -201 296 -199 40 0 163 46 196 73 15 12 2 76 -20
97 -14 14 -23 14 -97 -3 l-81 -19 -46 24 c-42 23 -83 73 -89 110 -17 99 -2
183 39 227 48 52 103 64 180 41 35 -10 40 -9 52 8 8 10 26 33 40 49 14 17 25
34 23 40 -8 23 -123 69 -182 72 -51 4 -70 -1 -124 -27z"/>
</g>
</svg>
